<mxfile host="app.diagrams.net" modified="2021-01-08T13:27:55.629Z" agent="5.0 (X11)" etag="ExWm63CqEhDtiZpBvxkk" version="14.1.8" type="github">
  <diagram id="xuc4DWIO_O0dBoMzTeBS" name="Page-1">
    <mxGraphModel dx="2272" dy="776" grid="1" gridSize="10" guides="1" tooltips="1" connect="1" arrows="1" fold="1" page="1" pageScale="1" pageWidth="850" pageHeight="1100" background="#114B5F" math="1" shadow="1">
      <root>
        <mxCell id="0" />
        <mxCell id="1" parent="0" />
        <mxCell id="qB2Rg0o0fhjjosjWZkIm-17" value="" style="shape=table;html=1;whiteSpace=wrap;startSize=0;container=1;collapsible=0;childLayout=tableLayout;perimeter=rectanglePerimeter;swimlaneFillColor=none;rounded=1;shadow=1;sketch=0;opacity=80;fontSize=50;direction=north;flipH=0;flipV=0;verticalAlign=middle;labelPosition=center;verticalLabelPosition=middle;align=center;horizontal=0;spacingTop=-15;fillColor=#F45B69;fontColor=#E4FDE1;strokeColor=none;" parent="1" vertex="1">
          <mxGeometry x="10" y="10" width="480" height="480" as="geometry" />
        </mxCell>
        <mxCell id="qB2Rg0o0fhjjosjWZkIm-18" value="" style="shape=partialRectangle;html=1;whiteSpace=wrap;collapsible=0;dropTarget=0;pointerEvents=0;fillColor=none;top=0;left=0;bottom=0;right=0;points=[[0,0.5],[1,0.5]];portConstraint=eastwest;fontSize=50;direction=north;flipH=0;flipV=0;verticalAlign=middle;labelPosition=center;verticalLabelPosition=middle;align=center;horizontal=0;spacingTop=-15;strokeColor=#028090;fontColor=#E4FDE1;" parent="qB2Rg0o0fhjjosjWZkIm-17" vertex="1">
          <mxGeometry width="480" height="60" as="geometry" />
        </mxCell>
        <mxCell id="qB2Rg0o0fhjjosjWZkIm-19" value="." style="shape=partialRectangle;html=1;whiteSpace=wrap;connectable=0;overflow=hidden;fillColor=none;top=0;left=0;bottom=0;right=0;fontSize=50;direction=north;flipH=0;flipV=0;verticalAlign=middle;labelPosition=center;verticalLabelPosition=middle;align=center;horizontal=0;spacingTop=-15;strokeColor=#028090;fontColor=#E4FDE1;" parent="qB2Rg0o0fhjjosjWZkIm-18" vertex="1">
          <mxGeometry width="60" height="60" as="geometry" />
        </mxCell>
        <mxCell id="qB2Rg0o0fhjjosjWZkIm-20" value="." style="shape=partialRectangle;html=1;whiteSpace=wrap;connectable=0;overflow=hidden;fillColor=none;top=0;left=0;bottom=0;right=0;fontSize=50;direction=north;flipH=0;flipV=0;verticalAlign=middle;labelPosition=center;verticalLabelPosition=middle;align=center;horizontal=0;spacingTop=-15;strokeColor=#028090;fontColor=#E4FDE1;" parent="qB2Rg0o0fhjjosjWZkIm-18" vertex="1">
          <mxGeometry x="60" width="60" height="60" as="geometry" />
        </mxCell>
        <mxCell id="qB2Rg0o0fhjjosjWZkIm-21" value="2" style="shape=partialRectangle;html=1;whiteSpace=wrap;connectable=0;overflow=hidden;fillColor=none;top=0;left=0;bottom=0;right=0;fontSize=50;direction=north;flipH=0;flipV=0;verticalAlign=top;labelPosition=center;verticalLabelPosition=middle;align=center;horizontal=1;spacingTop=0;strokeColor=#028090;fontColor=#E4FDE1;" parent="qB2Rg0o0fhjjosjWZkIm-18" vertex="1">
          <mxGeometry x="120" width="60" height="60" as="geometry" />
        </mxCell>
        <mxCell id="qB2Rg0o0fhjjosjWZkIm-22" value="." style="shape=partialRectangle;html=1;whiteSpace=wrap;connectable=0;overflow=hidden;fillColor=none;top=0;left=0;bottom=0;right=0;fontSize=50;direction=north;flipH=0;flipV=0;verticalAlign=middle;labelPosition=center;verticalLabelPosition=middle;align=center;horizontal=0;spacingTop=-15;strokeColor=#028090;fontColor=#E4FDE1;" parent="qB2Rg0o0fhjjosjWZkIm-18" vertex="1">
          <mxGeometry x="180" width="60" height="60" as="geometry" />
        </mxCell>
        <mxCell id="qB2Rg0o0fhjjosjWZkIm-23" value="." style="shape=partialRectangle;html=1;whiteSpace=wrap;connectable=0;overflow=hidden;fillColor=none;top=0;left=0;bottom=0;right=0;fontSize=50;direction=north;flipH=0;flipV=0;verticalAlign=middle;labelPosition=center;verticalLabelPosition=middle;align=center;horizontal=0;spacingTop=-15;strokeColor=#028090;fontColor=#E4FDE1;" parent="qB2Rg0o0fhjjosjWZkIm-18" vertex="1">
          <mxGeometry x="240" width="60" height="60" as="geometry" />
        </mxCell>
        <mxCell id="qB2Rg0o0fhjjosjWZkIm-24" value="." style="shape=partialRectangle;html=1;whiteSpace=wrap;connectable=0;overflow=hidden;fillColor=none;top=0;left=0;bottom=0;right=0;fontSize=50;direction=north;flipH=0;flipV=0;verticalAlign=middle;labelPosition=center;verticalLabelPosition=middle;align=center;horizontal=0;spacingTop=-15;strokeColor=#028090;fontColor=#E4FDE1;" parent="qB2Rg0o0fhjjosjWZkIm-18" vertex="1">
          <mxGeometry x="300" width="60" height="60" as="geometry" />
        </mxCell>
        <mxCell id="qB2Rg0o0fhjjosjWZkIm-25" value="." style="shape=partialRectangle;html=1;whiteSpace=wrap;connectable=0;overflow=hidden;fillColor=none;top=0;left=0;bottom=0;right=0;fontSize=50;direction=north;flipH=0;flipV=0;verticalAlign=middle;labelPosition=center;verticalLabelPosition=middle;align=center;horizontal=0;spacingTop=-15;strokeColor=#028090;fontColor=#E4FDE1;" parent="qB2Rg0o0fhjjosjWZkIm-18" vertex="1">
          <mxGeometry x="360" width="60" height="60" as="geometry" />
        </mxCell>
        <mxCell id="qB2Rg0o0fhjjosjWZkIm-26" value="." style="shape=partialRectangle;html=1;whiteSpace=wrap;connectable=0;overflow=hidden;fillColor=none;top=0;left=0;bottom=0;right=0;fontSize=50;direction=north;flipH=0;flipV=0;verticalAlign=middle;labelPosition=center;verticalLabelPosition=middle;align=center;horizontal=0;spacingTop=-15;strokeColor=#028090;fontColor=#E4FDE1;" parent="qB2Rg0o0fhjjosjWZkIm-18" vertex="1">
          <mxGeometry x="420" width="60" height="60" as="geometry" />
        </mxCell>
        <mxCell id="qB2Rg0o0fhjjosjWZkIm-27" value="" style="shape=partialRectangle;html=1;whiteSpace=wrap;collapsible=0;dropTarget=0;pointerEvents=0;fillColor=none;top=0;left=0;bottom=0;right=0;points=[[0,0.5],[1,0.5]];portConstraint=eastwest;fontSize=50;direction=north;flipH=0;flipV=0;verticalAlign=middle;labelPosition=center;verticalLabelPosition=middle;align=center;horizontal=0;spacingTop=-15;strokeColor=#028090;fontColor=#E4FDE1;" parent="qB2Rg0o0fhjjosjWZkIm-17" vertex="1">
          <mxGeometry y="60" width="480" height="60" as="geometry" />
        </mxCell>
        <mxCell id="qB2Rg0o0fhjjosjWZkIm-28" value="." style="shape=partialRectangle;html=1;whiteSpace=wrap;connectable=0;overflow=hidden;fillColor=none;top=0;left=0;bottom=0;right=0;fontSize=50;direction=north;flipH=0;flipV=0;verticalAlign=middle;labelPosition=center;verticalLabelPosition=middle;align=center;horizontal=0;spacingTop=-15;strokeColor=#028090;fontColor=#E4FDE1;" parent="qB2Rg0o0fhjjosjWZkIm-27" vertex="1">
          <mxGeometry width="60" height="60" as="geometry" />
        </mxCell>
        <mxCell id="qB2Rg0o0fhjjosjWZkIm-29" value="." style="shape=partialRectangle;html=1;whiteSpace=wrap;connectable=0;overflow=hidden;fillColor=none;top=0;left=0;bottom=0;right=0;fontSize=50;direction=north;flipH=0;flipV=0;verticalAlign=middle;labelPosition=center;verticalLabelPosition=middle;align=center;horizontal=0;spacingTop=-15;strokeColor=#028090;fontColor=#E4FDE1;" parent="qB2Rg0o0fhjjosjWZkIm-27" vertex="1">
          <mxGeometry x="60" width="60" height="60" as="geometry" />
        </mxCell>
        <mxCell id="qB2Rg0o0fhjjosjWZkIm-30" value="2" style="shape=partialRectangle;html=1;whiteSpace=wrap;connectable=0;overflow=hidden;fillColor=none;top=0;left=0;bottom=0;right=0;fontSize=50;direction=north;flipH=0;flipV=0;verticalAlign=top;labelPosition=center;verticalLabelPosition=middle;align=center;horizontal=1;spacingTop=0;strokeColor=#028090;fontColor=#E4FDE1;" parent="qB2Rg0o0fhjjosjWZkIm-27" vertex="1">
          <mxGeometry x="120" width="60" height="60" as="geometry" />
        </mxCell>
        <mxCell id="qB2Rg0o0fhjjosjWZkIm-31" value="." style="shape=partialRectangle;html=1;whiteSpace=wrap;connectable=0;overflow=hidden;fillColor=none;top=0;left=0;bottom=0;right=0;fontSize=50;direction=north;flipH=0;flipV=0;verticalAlign=middle;labelPosition=center;verticalLabelPosition=middle;align=center;horizontal=0;spacingTop=-15;strokeColor=#028090;fontColor=#E4FDE1;" parent="qB2Rg0o0fhjjosjWZkIm-27" vertex="1">
          <mxGeometry x="180" width="60" height="60" as="geometry" />
        </mxCell>
        <mxCell id="qB2Rg0o0fhjjosjWZkIm-32" value="." style="shape=partialRectangle;html=1;whiteSpace=wrap;connectable=0;overflow=hidden;fillColor=none;top=0;left=0;bottom=0;right=0;fontSize=50;direction=north;flipH=0;flipV=0;verticalAlign=middle;labelPosition=center;verticalLabelPosition=middle;align=center;horizontal=0;spacingTop=-15;strokeColor=#028090;fontColor=#E4FDE1;" parent="qB2Rg0o0fhjjosjWZkIm-27" vertex="1">
          <mxGeometry x="240" width="60" height="60" as="geometry" />
        </mxCell>
        <mxCell id="qB2Rg0o0fhjjosjWZkIm-33" value="." style="shape=partialRectangle;html=1;whiteSpace=wrap;connectable=0;overflow=hidden;fillColor=none;top=0;left=0;bottom=0;right=0;fontSize=50;direction=north;flipH=0;flipV=0;verticalAlign=middle;labelPosition=center;verticalLabelPosition=middle;align=center;horizontal=0;spacingTop=-15;strokeColor=#028090;fontColor=#E4FDE1;" parent="qB2Rg0o0fhjjosjWZkIm-27" vertex="1">
          <mxGeometry x="300" width="60" height="60" as="geometry" />
        </mxCell>
        <mxCell id="qB2Rg0o0fhjjosjWZkIm-34" value="." style="shape=partialRectangle;html=1;whiteSpace=wrap;connectable=0;overflow=hidden;fillColor=none;top=0;left=0;bottom=0;right=0;fontSize=50;direction=north;flipH=0;flipV=0;verticalAlign=middle;labelPosition=center;verticalLabelPosition=middle;align=center;horizontal=0;spacingTop=-15;strokeColor=#028090;fontColor=#E4FDE1;" parent="qB2Rg0o0fhjjosjWZkIm-27" vertex="1">
          <mxGeometry x="360" width="60" height="60" as="geometry" />
        </mxCell>
        <mxCell id="qB2Rg0o0fhjjosjWZkIm-35" value="." style="shape=partialRectangle;html=1;whiteSpace=wrap;connectable=0;overflow=hidden;fillColor=none;top=0;left=0;bottom=0;right=0;fontSize=50;direction=north;flipH=0;flipV=0;verticalAlign=middle;labelPosition=center;verticalLabelPosition=middle;align=center;horizontal=0;spacingTop=-15;strokeColor=#028090;fontColor=#E4FDE1;" parent="qB2Rg0o0fhjjosjWZkIm-27" vertex="1">
          <mxGeometry x="420" width="60" height="60" as="geometry" />
        </mxCell>
        <mxCell id="qB2Rg0o0fhjjosjWZkIm-36" value="" style="shape=partialRectangle;html=1;whiteSpace=wrap;collapsible=0;dropTarget=0;pointerEvents=0;fillColor=none;top=0;left=0;bottom=0;right=0;points=[[0,0.5],[1,0.5]];portConstraint=eastwest;fontSize=50;direction=north;flipH=0;flipV=0;verticalAlign=middle;labelPosition=center;verticalLabelPosition=middle;align=center;horizontal=0;spacingTop=-15;strokeColor=#028090;fontColor=#E4FDE1;" parent="qB2Rg0o0fhjjosjWZkIm-17" vertex="1">
          <mxGeometry y="120" width="480" height="60" as="geometry" />
        </mxCell>
        <mxCell id="qB2Rg0o0fhjjosjWZkIm-37" value="." style="shape=partialRectangle;html=1;whiteSpace=wrap;connectable=0;overflow=hidden;fillColor=none;top=0;left=0;bottom=0;right=0;fontSize=50;direction=north;flipH=0;flipV=0;verticalAlign=middle;labelPosition=center;verticalLabelPosition=middle;align=center;horizontal=0;spacingTop=-15;strokeColor=#028090;fontColor=#E4FDE1;" parent="qB2Rg0o0fhjjosjWZkIm-36" vertex="1">
          <mxGeometry width="60" height="60" as="geometry" />
        </mxCell>
        <mxCell id="qB2Rg0o0fhjjosjWZkIm-38" value="." style="shape=partialRectangle;html=1;whiteSpace=wrap;connectable=0;overflow=hidden;fillColor=none;top=0;left=0;bottom=0;right=0;fontSize=50;direction=north;flipH=0;flipV=0;verticalAlign=middle;labelPosition=center;verticalLabelPosition=middle;align=center;horizontal=0;spacingTop=-15;strokeColor=#028090;fontColor=#E4FDE1;" parent="qB2Rg0o0fhjjosjWZkIm-36" vertex="1">
          <mxGeometry x="60" width="60" height="60" as="geometry" />
        </mxCell>
        <mxCell id="qB2Rg0o0fhjjosjWZkIm-39" value="." style="shape=partialRectangle;html=1;whiteSpace=wrap;connectable=0;overflow=hidden;fillColor=none;top=0;left=0;bottom=0;right=0;fontSize=50;direction=north;flipH=0;flipV=0;verticalAlign=middle;labelPosition=center;verticalLabelPosition=middle;align=center;horizontal=0;spacingTop=-15;strokeColor=#028090;fontColor=#E4FDE1;" parent="qB2Rg0o0fhjjosjWZkIm-36" vertex="1">
          <mxGeometry x="120" width="60" height="60" as="geometry" />
        </mxCell>
        <mxCell id="qB2Rg0o0fhjjosjWZkIm-40" value="." style="shape=partialRectangle;html=1;whiteSpace=wrap;connectable=0;overflow=hidden;fillColor=none;top=0;left=0;bottom=0;right=0;fontSize=50;direction=north;flipH=0;flipV=0;verticalAlign=middle;labelPosition=center;verticalLabelPosition=middle;align=center;horizontal=0;spacingTop=-15;strokeColor=#028090;fontColor=#E4FDE1;" parent="qB2Rg0o0fhjjosjWZkIm-36" vertex="1">
          <mxGeometry x="180" width="60" height="60" as="geometry" />
        </mxCell>
        <mxCell id="qB2Rg0o0fhjjosjWZkIm-41" value="." style="shape=partialRectangle;html=1;whiteSpace=wrap;connectable=0;overflow=hidden;fillColor=none;top=0;left=0;bottom=0;right=0;fontSize=50;direction=north;flipH=0;flipV=0;verticalAlign=middle;labelPosition=center;verticalLabelPosition=middle;align=center;horizontal=0;spacingTop=-15;strokeColor=#028090;fontColor=#E4FDE1;" parent="qB2Rg0o0fhjjosjWZkIm-36" vertex="1">
          <mxGeometry x="240" width="60" height="60" as="geometry" />
        </mxCell>
        <mxCell id="qB2Rg0o0fhjjosjWZkIm-42" value="." style="shape=partialRectangle;html=1;whiteSpace=wrap;connectable=0;overflow=hidden;fillColor=none;top=0;left=0;bottom=0;right=0;fontSize=50;direction=north;flipH=0;flipV=0;verticalAlign=middle;labelPosition=center;verticalLabelPosition=middle;align=center;horizontal=0;spacingTop=-15;strokeColor=#028090;fontColor=#E4FDE1;" parent="qB2Rg0o0fhjjosjWZkIm-36" vertex="1">
          <mxGeometry x="300" width="60" height="60" as="geometry" />
        </mxCell>
        <mxCell id="qB2Rg0o0fhjjosjWZkIm-43" value="." style="shape=partialRectangle;html=1;whiteSpace=wrap;connectable=0;overflow=hidden;fillColor=none;top=0;left=0;bottom=0;right=0;fontSize=50;direction=north;flipH=0;flipV=0;verticalAlign=middle;labelPosition=center;verticalLabelPosition=middle;align=center;horizontal=0;spacingTop=-15;strokeColor=#028090;fontColor=#E4FDE1;" parent="qB2Rg0o0fhjjosjWZkIm-36" vertex="1">
          <mxGeometry x="360" width="60" height="60" as="geometry" />
        </mxCell>
        <mxCell id="qB2Rg0o0fhjjosjWZkIm-44" value="." style="shape=partialRectangle;html=1;whiteSpace=wrap;connectable=0;overflow=hidden;fillColor=none;top=0;left=0;bottom=0;right=0;fontSize=50;direction=north;flipH=0;flipV=0;verticalAlign=middle;labelPosition=center;verticalLabelPosition=middle;align=center;horizontal=0;spacingTop=-15;strokeColor=#028090;fontColor=#E4FDE1;" parent="qB2Rg0o0fhjjosjWZkIm-36" vertex="1">
          <mxGeometry x="420" width="60" height="60" as="geometry" />
        </mxCell>
        <mxCell id="qB2Rg0o0fhjjosjWZkIm-45" value="" style="shape=partialRectangle;html=1;whiteSpace=wrap;collapsible=0;dropTarget=0;pointerEvents=0;fillColor=none;top=0;left=0;bottom=0;right=0;points=[[0,0.5],[1,0.5]];portConstraint=eastwest;fontSize=50;direction=north;flipH=0;flipV=0;verticalAlign=middle;labelPosition=center;verticalLabelPosition=middle;align=center;horizontal=0;spacingTop=-15;strokeColor=#028090;fontColor=#E4FDE1;" parent="qB2Rg0o0fhjjosjWZkIm-17" vertex="1">
          <mxGeometry y="180" width="480" height="60" as="geometry" />
        </mxCell>
        <mxCell id="qB2Rg0o0fhjjosjWZkIm-46" value="." style="shape=partialRectangle;html=1;whiteSpace=wrap;connectable=0;overflow=hidden;fillColor=none;top=0;left=0;bottom=0;right=0;fontSize=50;direction=north;flipH=0;flipV=0;verticalAlign=middle;labelPosition=center;verticalLabelPosition=middle;align=center;horizontal=0;spacingTop=-15;strokeColor=#028090;fontColor=#E4FDE1;" parent="qB2Rg0o0fhjjosjWZkIm-45" vertex="1">
          <mxGeometry width="60" height="60" as="geometry" />
        </mxCell>
        <mxCell id="qB2Rg0o0fhjjosjWZkIm-47" value="." style="shape=partialRectangle;html=1;whiteSpace=wrap;connectable=0;overflow=hidden;fillColor=none;top=0;left=0;bottom=0;right=0;fontSize=50;direction=north;flipH=0;flipV=0;verticalAlign=middle;labelPosition=center;verticalLabelPosition=middle;align=center;horizontal=0;spacingTop=-15;strokeColor=#028090;fontColor=#E4FDE1;" parent="qB2Rg0o0fhjjosjWZkIm-45" vertex="1">
          <mxGeometry x="60" width="60" height="60" as="geometry" />
        </mxCell>
        <mxCell id="qB2Rg0o0fhjjosjWZkIm-48" value="." style="shape=partialRectangle;html=1;whiteSpace=wrap;connectable=0;overflow=hidden;fillColor=none;top=0;left=0;bottom=0;right=0;fontSize=50;direction=north;flipH=0;flipV=0;verticalAlign=middle;labelPosition=center;verticalLabelPosition=middle;align=center;horizontal=0;spacingTop=-15;strokeColor=#028090;fontColor=#E4FDE1;" parent="qB2Rg0o0fhjjosjWZkIm-45" vertex="1">
          <mxGeometry x="120" width="60" height="60" as="geometry" />
        </mxCell>
        <mxCell id="qB2Rg0o0fhjjosjWZkIm-49" value="3" style="shape=partialRectangle;html=1;whiteSpace=wrap;connectable=0;overflow=hidden;fillColor=none;top=0;left=0;bottom=0;right=0;fontSize=50;direction=north;flipH=0;flipV=0;verticalAlign=top;labelPosition=center;verticalLabelPosition=middle;align=center;horizontal=1;spacingTop=0;strokeColor=#028090;fontColor=#E4FDE1;" parent="qB2Rg0o0fhjjosjWZkIm-45" vertex="1">
          <mxGeometry x="180" width="60" height="60" as="geometry" />
        </mxCell>
        <mxCell id="qB2Rg0o0fhjjosjWZkIm-50" value="3" style="shape=partialRectangle;html=1;whiteSpace=wrap;connectable=0;overflow=hidden;fillColor=none;top=0;left=0;bottom=0;right=0;fontSize=50;direction=north;flipH=0;flipV=0;verticalAlign=top;labelPosition=center;verticalLabelPosition=middle;align=center;horizontal=1;spacingTop=0;strokeColor=#028090;fontColor=#E4FDE1;" parent="qB2Rg0o0fhjjosjWZkIm-45" vertex="1">
          <mxGeometry x="240" width="60" height="60" as="geometry" />
        </mxCell>
        <mxCell id="qB2Rg0o0fhjjosjWZkIm-51" value="3" style="shape=partialRectangle;html=1;whiteSpace=wrap;connectable=0;overflow=hidden;fillColor=none;top=0;left=0;bottom=0;right=0;fontSize=50;direction=north;flipH=0;flipV=0;verticalAlign=top;labelPosition=center;verticalLabelPosition=middle;align=center;horizontal=1;spacingTop=0;strokeColor=#028090;fontColor=#E4FDE1;" parent="qB2Rg0o0fhjjosjWZkIm-45" vertex="1">
          <mxGeometry x="300" width="60" height="60" as="geometry" />
        </mxCell>
        <mxCell id="qB2Rg0o0fhjjosjWZkIm-52" value="." style="shape=partialRectangle;html=1;whiteSpace=wrap;connectable=0;overflow=hidden;fillColor=none;top=0;left=0;bottom=0;right=0;fontSize=50;direction=north;flipH=0;flipV=0;verticalAlign=middle;labelPosition=center;verticalLabelPosition=middle;align=center;horizontal=0;spacingTop=-15;strokeColor=#028090;fontColor=#E4FDE1;" parent="qB2Rg0o0fhjjosjWZkIm-45" vertex="1">
          <mxGeometry x="360" width="60" height="60" as="geometry" />
        </mxCell>
        <mxCell id="qB2Rg0o0fhjjosjWZkIm-53" value="." style="shape=partialRectangle;html=1;whiteSpace=wrap;connectable=0;overflow=hidden;fillColor=none;top=0;left=0;bottom=0;right=0;fontSize=50;direction=north;flipH=0;flipV=0;verticalAlign=middle;labelPosition=center;verticalLabelPosition=middle;align=center;horizontal=0;spacingTop=-15;strokeColor=#028090;fontColor=#E4FDE1;" parent="qB2Rg0o0fhjjosjWZkIm-45" vertex="1">
          <mxGeometry x="420" width="60" height="60" as="geometry" />
        </mxCell>
        <mxCell id="qB2Rg0o0fhjjosjWZkIm-54" value="" style="shape=partialRectangle;html=1;whiteSpace=wrap;collapsible=0;dropTarget=0;pointerEvents=0;fillColor=none;top=0;left=0;bottom=0;right=0;points=[[0,0.5],[1,0.5]];portConstraint=eastwest;fontSize=50;direction=north;flipH=0;flipV=0;verticalAlign=middle;labelPosition=center;verticalLabelPosition=middle;align=center;horizontal=0;spacingTop=-15;strokeColor=#028090;fontColor=#E4FDE1;" parent="qB2Rg0o0fhjjosjWZkIm-17" vertex="1">
          <mxGeometry y="240" width="480" height="60" as="geometry" />
        </mxCell>
        <mxCell id="qB2Rg0o0fhjjosjWZkIm-55" value="." style="shape=partialRectangle;html=1;whiteSpace=wrap;connectable=0;overflow=hidden;fillColor=none;top=0;left=0;bottom=0;right=0;fontSize=50;direction=north;flipH=0;flipV=0;verticalAlign=middle;labelPosition=center;verticalLabelPosition=middle;align=center;horizontal=0;spacingTop=-15;strokeColor=#028090;fontColor=#E4FDE1;" parent="qB2Rg0o0fhjjosjWZkIm-54" vertex="1">
          <mxGeometry width="60" height="60" as="geometry" />
        </mxCell>
        <mxCell id="qB2Rg0o0fhjjosjWZkIm-56" value="4" style="shape=partialRectangle;html=1;whiteSpace=wrap;connectable=0;overflow=hidden;fillColor=none;top=0;left=0;bottom=0;right=0;fontSize=50;direction=north;flipH=0;flipV=0;verticalAlign=top;labelPosition=center;verticalLabelPosition=middle;align=center;horizontal=1;spacingTop=0;strokeColor=#028090;fontColor=#E4FDE1;" parent="qB2Rg0o0fhjjosjWZkIm-54" vertex="1">
          <mxGeometry x="60" width="60" height="60" as="geometry" />
        </mxCell>
        <mxCell id="qB2Rg0o0fhjjosjWZkIm-57" value="." style="shape=partialRectangle;html=1;whiteSpace=wrap;connectable=0;overflow=hidden;fillColor=none;top=0;left=0;bottom=0;right=0;fontSize=50;direction=north;flipH=0;flipV=0;verticalAlign=middle;labelPosition=center;verticalLabelPosition=middle;align=center;horizontal=0;spacingTop=-15;strokeColor=#028090;fontColor=#E4FDE1;" parent="qB2Rg0o0fhjjosjWZkIm-54" vertex="1">
          <mxGeometry x="120" width="60" height="60" as="geometry" />
        </mxCell>
        <mxCell id="qB2Rg0o0fhjjosjWZkIm-58" value="." style="shape=partialRectangle;html=1;whiteSpace=wrap;connectable=0;overflow=hidden;fillColor=none;top=0;left=0;bottom=0;right=0;fontSize=50;direction=north;flipH=0;flipV=0;verticalAlign=middle;labelPosition=center;verticalLabelPosition=middle;align=center;horizontal=0;spacingTop=-15;strokeColor=#028090;fontColor=#E4FDE1;" parent="qB2Rg0o0fhjjosjWZkIm-54" vertex="1">
          <mxGeometry x="180" width="60" height="60" as="geometry" />
        </mxCell>
        <mxCell id="qB2Rg0o0fhjjosjWZkIm-59" value="." style="shape=partialRectangle;html=1;whiteSpace=wrap;connectable=0;overflow=hidden;fillColor=none;top=0;left=0;bottom=0;right=0;fontSize=50;direction=north;flipH=0;flipV=0;verticalAlign=middle;labelPosition=center;verticalLabelPosition=middle;align=center;horizontal=0;spacingTop=-15;strokeColor=#028090;fontColor=#E4FDE1;" parent="qB2Rg0o0fhjjosjWZkIm-54" vertex="1">
          <mxGeometry x="240" width="60" height="60" as="geometry" />
        </mxCell>
        <mxCell id="qB2Rg0o0fhjjosjWZkIm-60" value="." style="shape=partialRectangle;html=1;whiteSpace=wrap;connectable=0;overflow=hidden;fillColor=none;top=0;left=0;bottom=0;right=0;fontSize=50;direction=north;flipH=0;flipV=0;verticalAlign=middle;labelPosition=center;verticalLabelPosition=middle;align=center;horizontal=0;spacingTop=-15;strokeColor=#028090;fontColor=#E4FDE1;" parent="qB2Rg0o0fhjjosjWZkIm-54" vertex="1">
          <mxGeometry x="300" width="60" height="60" as="geometry" />
        </mxCell>
        <mxCell id="qB2Rg0o0fhjjosjWZkIm-61" value="." style="shape=partialRectangle;html=1;whiteSpace=wrap;connectable=0;overflow=hidden;fillColor=none;top=0;left=0;bottom=0;right=0;fontSize=50;direction=north;flipH=0;flipV=0;verticalAlign=middle;labelPosition=center;verticalLabelPosition=middle;align=center;horizontal=0;spacingTop=-15;strokeColor=#028090;fontColor=#E4FDE1;" parent="qB2Rg0o0fhjjosjWZkIm-54" vertex="1">
          <mxGeometry x="360" width="60" height="60" as="geometry" />
        </mxCell>
        <mxCell id="qB2Rg0o0fhjjosjWZkIm-62" value="." style="shape=partialRectangle;html=1;whiteSpace=wrap;connectable=0;overflow=hidden;fillColor=none;top=0;left=0;bottom=0;right=0;fontSize=50;direction=north;flipH=0;flipV=0;verticalAlign=middle;labelPosition=center;verticalLabelPosition=middle;align=center;horizontal=0;spacingTop=-15;strokeColor=#028090;fontColor=#E4FDE1;" parent="qB2Rg0o0fhjjosjWZkIm-54" vertex="1">
          <mxGeometry x="420" width="60" height="60" as="geometry" />
        </mxCell>
        <mxCell id="qB2Rg0o0fhjjosjWZkIm-63" value="" style="shape=partialRectangle;html=1;whiteSpace=wrap;collapsible=0;dropTarget=0;pointerEvents=0;fillColor=none;top=0;left=0;bottom=0;right=0;points=[[0,0.5],[1,0.5]];portConstraint=eastwest;fontSize=50;direction=north;flipH=0;flipV=0;verticalAlign=middle;labelPosition=center;verticalLabelPosition=middle;align=center;horizontal=0;spacingTop=-15;strokeColor=#028090;fontColor=#E4FDE1;" parent="qB2Rg0o0fhjjosjWZkIm-17" vertex="1">
          <mxGeometry y="300" width="480" height="60" as="geometry" />
        </mxCell>
        <mxCell id="qB2Rg0o0fhjjosjWZkIm-64" value="." style="shape=partialRectangle;html=1;whiteSpace=wrap;connectable=0;overflow=hidden;fillColor=none;top=0;left=0;bottom=0;right=0;fontSize=50;direction=north;flipH=0;flipV=0;verticalAlign=middle;labelPosition=center;verticalLabelPosition=middle;align=center;horizontal=0;spacingTop=-15;strokeColor=#028090;fontColor=#E4FDE1;" parent="qB2Rg0o0fhjjosjWZkIm-63" vertex="1">
          <mxGeometry width="60" height="60" as="geometry" />
        </mxCell>
        <mxCell id="qB2Rg0o0fhjjosjWZkIm-65" value="4" style="shape=partialRectangle;html=1;whiteSpace=wrap;connectable=0;overflow=hidden;fillColor=none;top=0;left=0;bottom=0;right=0;fontSize=50;direction=north;flipH=0;flipV=0;verticalAlign=top;labelPosition=center;verticalLabelPosition=middle;align=center;horizontal=1;spacingTop=0;strokeColor=#028090;fontColor=#E4FDE1;" parent="qB2Rg0o0fhjjosjWZkIm-63" vertex="1">
          <mxGeometry x="60" width="60" height="60" as="geometry" />
        </mxCell>
        <mxCell id="qB2Rg0o0fhjjosjWZkIm-66" value="." style="shape=partialRectangle;html=1;whiteSpace=wrap;connectable=0;overflow=hidden;fillColor=none;top=0;left=0;bottom=0;right=0;fontSize=50;direction=north;flipH=0;flipV=0;verticalAlign=middle;labelPosition=center;verticalLabelPosition=middle;align=center;horizontal=0;spacingTop=-15;strokeColor=#028090;fontColor=#E4FDE1;" parent="qB2Rg0o0fhjjosjWZkIm-63" vertex="1">
          <mxGeometry x="120" width="60" height="60" as="geometry" />
        </mxCell>
        <mxCell id="qB2Rg0o0fhjjosjWZkIm-67" value="." style="shape=partialRectangle;html=1;whiteSpace=wrap;connectable=0;overflow=hidden;fillColor=none;top=0;left=0;bottom=0;right=0;fontSize=50;direction=north;flipH=0;flipV=0;verticalAlign=middle;labelPosition=center;verticalLabelPosition=middle;align=center;horizontal=0;spacingTop=-15;strokeColor=#028090;fontColor=#E4FDE1;" parent="qB2Rg0o0fhjjosjWZkIm-63" vertex="1">
          <mxGeometry x="180" width="60" height="60" as="geometry" />
        </mxCell>
        <mxCell id="qB2Rg0o0fhjjosjWZkIm-68" value="." style="shape=partialRectangle;html=1;whiteSpace=wrap;connectable=0;overflow=hidden;fillColor=none;top=0;left=0;bottom=0;right=0;fontSize=50;direction=north;flipH=0;flipV=0;verticalAlign=middle;labelPosition=center;verticalLabelPosition=middle;align=center;horizontal=0;spacingTop=-15;strokeColor=#028090;fontColor=#E4FDE1;" parent="qB2Rg0o0fhjjosjWZkIm-63" vertex="1">
          <mxGeometry x="240" width="60" height="60" as="geometry" />
        </mxCell>
        <mxCell id="qB2Rg0o0fhjjosjWZkIm-69" value="." style="shape=partialRectangle;html=1;whiteSpace=wrap;connectable=0;overflow=hidden;fillColor=none;top=0;left=0;bottom=0;right=0;fontSize=50;direction=north;flipH=0;flipV=0;verticalAlign=middle;labelPosition=center;verticalLabelPosition=middle;align=center;horizontal=0;spacingTop=-15;strokeColor=#028090;fontColor=#E4FDE1;" parent="qB2Rg0o0fhjjosjWZkIm-63" vertex="1">
          <mxGeometry x="300" width="60" height="60" as="geometry" />
        </mxCell>
        <mxCell id="qB2Rg0o0fhjjosjWZkIm-70" value="." style="shape=partialRectangle;html=1;whiteSpace=wrap;connectable=0;overflow=hidden;fillColor=none;top=0;left=0;bottom=0;right=0;fontSize=50;direction=north;flipH=0;flipV=0;verticalAlign=middle;labelPosition=center;verticalLabelPosition=middle;align=center;horizontal=0;spacingTop=-15;strokeColor=#028090;fontColor=#E4FDE1;" parent="qB2Rg0o0fhjjosjWZkIm-63" vertex="1">
          <mxGeometry x="360" width="60" height="60" as="geometry" />
        </mxCell>
        <mxCell id="qB2Rg0o0fhjjosjWZkIm-71" value="." style="shape=partialRectangle;html=1;whiteSpace=wrap;connectable=0;overflow=hidden;fillColor=none;top=0;left=0;bottom=0;right=0;fontSize=50;direction=north;flipH=0;flipV=0;verticalAlign=middle;labelPosition=center;verticalLabelPosition=middle;align=center;horizontal=0;spacingTop=-15;strokeColor=#028090;fontColor=#E4FDE1;" parent="qB2Rg0o0fhjjosjWZkIm-63" vertex="1">
          <mxGeometry x="420" width="60" height="60" as="geometry" />
        </mxCell>
        <mxCell id="qB2Rg0o0fhjjosjWZkIm-72" value="" style="shape=partialRectangle;html=1;whiteSpace=wrap;collapsible=0;dropTarget=0;pointerEvents=0;fillColor=none;top=0;left=0;bottom=0;right=0;points=[[0,0.5],[1,0.5]];portConstraint=eastwest;fontSize=50;direction=north;flipH=0;flipV=0;verticalAlign=middle;labelPosition=center;verticalLabelPosition=middle;align=center;horizontal=0;spacingTop=-15;strokeColor=#028090;fontColor=#E4FDE1;" parent="qB2Rg0o0fhjjosjWZkIm-17" vertex="1">
          <mxGeometry y="360" width="480" height="60" as="geometry" />
        </mxCell>
        <mxCell id="qB2Rg0o0fhjjosjWZkIm-73" value="." style="shape=partialRectangle;html=1;whiteSpace=wrap;connectable=0;overflow=hidden;fillColor=none;top=0;left=0;bottom=0;right=0;fontSize=50;direction=north;flipH=0;flipV=0;verticalAlign=middle;labelPosition=center;verticalLabelPosition=middle;align=center;horizontal=0;spacingTop=-15;strokeColor=#028090;fontColor=#E4FDE1;" parent="qB2Rg0o0fhjjosjWZkIm-72" vertex="1">
          <mxGeometry width="60" height="60" as="geometry" />
        </mxCell>
        <mxCell id="qB2Rg0o0fhjjosjWZkIm-74" value="4" style="shape=partialRectangle;html=1;whiteSpace=wrap;connectable=0;overflow=hidden;fillColor=none;top=0;left=0;bottom=0;right=0;fontSize=50;direction=north;flipH=0;flipV=0;verticalAlign=top;labelPosition=center;verticalLabelPosition=middle;align=center;horizontal=1;spacingTop=0;strokeColor=#028090;fontColor=#E4FDE1;" parent="qB2Rg0o0fhjjosjWZkIm-72" vertex="1">
          <mxGeometry x="60" width="60" height="60" as="geometry" />
        </mxCell>
        <mxCell id="qB2Rg0o0fhjjosjWZkIm-75" value="." style="shape=partialRectangle;html=1;whiteSpace=wrap;connectable=0;overflow=hidden;fillColor=none;top=0;left=0;bottom=0;right=0;fontSize=50;direction=north;flipH=0;flipV=0;verticalAlign=middle;labelPosition=center;verticalLabelPosition=middle;align=center;horizontal=0;spacingTop=-15;strokeColor=#028090;fontColor=#E4FDE1;" parent="qB2Rg0o0fhjjosjWZkIm-72" vertex="1">
          <mxGeometry x="120" width="60" height="60" as="geometry" />
        </mxCell>
        <mxCell id="qB2Rg0o0fhjjosjWZkIm-76" value="5" style="shape=partialRectangle;html=1;whiteSpace=wrap;connectable=0;overflow=hidden;fillColor=none;top=0;left=0;bottom=0;right=0;fontSize=50;direction=north;flipH=0;flipV=0;verticalAlign=top;labelPosition=center;verticalLabelPosition=middle;align=center;horizontal=1;spacingTop=0;strokeColor=#028090;fontColor=#E4FDE1;" parent="qB2Rg0o0fhjjosjWZkIm-72" vertex="1">
          <mxGeometry x="180" width="60" height="60" as="geometry" />
        </mxCell>
        <mxCell id="qB2Rg0o0fhjjosjWZkIm-77" value="5" style="shape=partialRectangle;html=1;whiteSpace=wrap;connectable=0;overflow=hidden;fillColor=none;top=0;left=0;bottom=0;right=0;fontSize=50;direction=north;flipH=0;flipV=0;verticalAlign=top;labelPosition=center;verticalLabelPosition=middle;align=center;horizontal=1;spacingTop=0;strokeColor=#028090;fontColor=#E4FDE1;" parent="qB2Rg0o0fhjjosjWZkIm-72" vertex="1">
          <mxGeometry x="240" width="60" height="60" as="geometry" />
        </mxCell>
        <mxCell id="qB2Rg0o0fhjjosjWZkIm-78" value="5" style="shape=partialRectangle;html=1;whiteSpace=wrap;connectable=0;overflow=hidden;fillColor=none;top=0;left=0;bottom=0;right=0;fontSize=50;direction=north;flipH=0;flipV=0;verticalAlign=top;labelPosition=center;verticalLabelPosition=middle;align=center;horizontal=1;spacingTop=0;strokeColor=#028090;fontColor=#E4FDE1;" parent="qB2Rg0o0fhjjosjWZkIm-72" vertex="1">
          <mxGeometry x="300" width="60" height="60" as="geometry" />
        </mxCell>
        <mxCell id="qB2Rg0o0fhjjosjWZkIm-79" value="5" style="shape=partialRectangle;html=1;whiteSpace=wrap;connectable=0;overflow=hidden;fillColor=none;top=0;left=0;bottom=0;right=0;fontSize=50;direction=north;flipH=0;flipV=0;verticalAlign=top;labelPosition=center;verticalLabelPosition=middle;align=center;horizontal=1;spacingTop=0;strokeColor=#028090;fontColor=#E4FDE1;" parent="qB2Rg0o0fhjjosjWZkIm-72" vertex="1">
          <mxGeometry x="360" width="60" height="60" as="geometry" />
        </mxCell>
        <mxCell id="qB2Rg0o0fhjjosjWZkIm-80" value="5" style="shape=partialRectangle;html=1;whiteSpace=wrap;connectable=0;overflow=hidden;fillColor=none;top=0;left=0;bottom=0;right=0;fontSize=50;direction=north;flipH=0;flipV=0;verticalAlign=top;labelPosition=center;verticalLabelPosition=middle;align=center;horizontal=1;spacingTop=0;strokeColor=#028090;fontColor=#E4FDE1;" parent="qB2Rg0o0fhjjosjWZkIm-72" vertex="1">
          <mxGeometry x="420" width="60" height="60" as="geometry" />
        </mxCell>
        <mxCell id="qB2Rg0o0fhjjosjWZkIm-81" value="" style="shape=partialRectangle;html=1;whiteSpace=wrap;collapsible=0;dropTarget=0;pointerEvents=0;fillColor=none;top=0;left=0;bottom=0;right=0;points=[[0,0.5],[1,0.5]];portConstraint=eastwest;fontSize=50;direction=north;flipH=0;flipV=0;verticalAlign=middle;labelPosition=center;verticalLabelPosition=middle;align=center;horizontal=0;spacingTop=-15;strokeColor=#028090;fontColor=#E4FDE1;" parent="qB2Rg0o0fhjjosjWZkIm-17" vertex="1">
          <mxGeometry y="420" width="480" height="60" as="geometry" />
        </mxCell>
        <mxCell id="qB2Rg0o0fhjjosjWZkIm-82" value="." style="shape=partialRectangle;html=1;whiteSpace=wrap;connectable=0;overflow=hidden;fillColor=none;top=0;left=0;bottom=0;right=0;fontSize=50;direction=north;flipH=0;flipV=0;verticalAlign=middle;labelPosition=center;verticalLabelPosition=middle;align=center;horizontal=0;spacingTop=-15;strokeColor=#028090;fontColor=#E4FDE1;" parent="qB2Rg0o0fhjjosjWZkIm-81" vertex="1">
          <mxGeometry width="60" height="60" as="geometry" />
        </mxCell>
        <mxCell id="qB2Rg0o0fhjjosjWZkIm-83" value="4" style="shape=partialRectangle;html=1;whiteSpace=wrap;connectable=0;overflow=hidden;fillColor=none;top=0;left=0;bottom=0;right=0;fontSize=50;direction=north;flipH=0;flipV=0;verticalAlign=top;labelPosition=center;verticalLabelPosition=middle;align=center;horizontal=1;spacingTop=0;strokeColor=#028090;fontColor=#E4FDE1;" parent="qB2Rg0o0fhjjosjWZkIm-81" vertex="1">
          <mxGeometry x="60" width="60" height="60" as="geometry" />
        </mxCell>
        <mxCell id="qB2Rg0o0fhjjosjWZkIm-84" value="." style="shape=partialRectangle;html=1;whiteSpace=wrap;connectable=0;overflow=hidden;fillColor=none;top=0;left=0;bottom=0;right=0;fontSize=50;direction=north;flipH=0;flipV=0;verticalAlign=middle;labelPosition=center;verticalLabelPosition=middle;align=center;horizontal=0;spacingTop=-15;strokeColor=#028090;fontColor=#E4FDE1;" parent="qB2Rg0o0fhjjosjWZkIm-81" vertex="1">
          <mxGeometry x="120" width="60" height="60" as="geometry" />
        </mxCell>
        <mxCell id="qB2Rg0o0fhjjosjWZkIm-85" value="." style="shape=partialRectangle;html=1;whiteSpace=wrap;connectable=0;overflow=hidden;fillColor=none;top=0;left=0;bottom=0;right=0;fontSize=50;direction=north;flipH=0;flipV=0;verticalAlign=middle;labelPosition=center;verticalLabelPosition=middle;align=center;horizontal=0;spacingTop=-15;strokeColor=#028090;fontColor=#E4FDE1;" parent="qB2Rg0o0fhjjosjWZkIm-81" vertex="1">
          <mxGeometry x="180" width="60" height="60" as="geometry" />
        </mxCell>
        <mxCell id="qB2Rg0o0fhjjosjWZkIm-86" value="." style="shape=partialRectangle;html=1;whiteSpace=wrap;connectable=0;overflow=hidden;fillColor=none;top=0;left=0;bottom=0;right=0;fontSize=50;direction=north;flipH=0;flipV=0;verticalAlign=middle;labelPosition=center;verticalLabelPosition=middle;align=center;horizontal=0;spacingTop=-15;strokeColor=#028090;fontColor=#E4FDE1;" parent="qB2Rg0o0fhjjosjWZkIm-81" vertex="1">
          <mxGeometry x="240" width="60" height="60" as="geometry" />
        </mxCell>
        <mxCell id="qB2Rg0o0fhjjosjWZkIm-87" value="." style="shape=partialRectangle;html=1;whiteSpace=wrap;connectable=0;overflow=hidden;fillColor=none;top=0;left=0;bottom=0;right=0;fontSize=50;direction=north;flipH=0;flipV=0;verticalAlign=middle;labelPosition=center;verticalLabelPosition=middle;align=center;horizontal=0;spacingTop=-15;strokeColor=#028090;fontColor=#E4FDE1;" parent="qB2Rg0o0fhjjosjWZkIm-81" vertex="1">
          <mxGeometry x="300" width="60" height="60" as="geometry" />
        </mxCell>
        <mxCell id="qB2Rg0o0fhjjosjWZkIm-88" value="." style="shape=partialRectangle;html=1;whiteSpace=wrap;connectable=0;overflow=hidden;fillColor=none;top=0;left=0;bottom=0;right=0;fontSize=50;direction=north;flipH=0;flipV=0;verticalAlign=middle;labelPosition=center;verticalLabelPosition=middle;align=center;horizontal=0;spacingTop=-15;strokeColor=#028090;fontColor=#E4FDE1;" parent="qB2Rg0o0fhjjosjWZkIm-81" vertex="1">
          <mxGeometry x="360" width="60" height="60" as="geometry" />
        </mxCell>
        <mxCell id="qB2Rg0o0fhjjosjWZkIm-89" value="." style="shape=partialRectangle;html=1;whiteSpace=wrap;connectable=0;overflow=hidden;fillColor=none;top=0;left=0;bottom=0;right=0;fontSize=50;direction=north;flipH=0;flipV=0;verticalAlign=middle;labelPosition=center;verticalLabelPosition=middle;align=center;horizontal=0;spacingTop=-15;strokeColor=#028090;fontColor=#E4FDE1;" parent="qB2Rg0o0fhjjosjWZkIm-81" vertex="1">
          <mxGeometry x="420" width="60" height="60" as="geometry" />
        </mxCell>
        <mxCell id="qB2Rg0o0fhjjosjWZkIm-90" value="Après un tir" style="swimlane;html=1;startSize=20;horizontal=1;containerType=tree;newEdgeStyle={&quot;edgeStyle&quot;:&quot;elbowEdgeStyle&quot;,&quot;startArrow&quot;:&quot;none&quot;,&quot;endArrow&quot;:&quot;none&quot;};rounded=0;sketch=0;strokeColor=#028090;fontColor=#E4FDE1;glass=0;noLabel=0;" parent="1" vertex="1">
          <mxGeometry x="30" y="540" width="420" height="280" as="geometry">
            <mxRectangle x="510" y="60" width="80" height="20" as="alternateBounds" />
          </mxGeometry>
        </mxCell>
        <mxCell id="qB2Rg0o0fhjjosjWZkIm-91" value="" style="edgeStyle=elbowEdgeStyle;elbow=vertical;startArrow=none;endArrow=none;rounded=0;" parent="qB2Rg0o0fhjjosjWZkIm-90" source="qB2Rg0o0fhjjosjWZkIm-93" target="qB2Rg0o0fhjjosjWZkIm-94" edge="1">
          <mxGeometry relative="1" as="geometry" />
        </mxCell>
        <mxCell id="qB2Rg0o0fhjjosjWZkIm-92" value="" style="edgeStyle=elbowEdgeStyle;elbow=vertical;startArrow=none;endArrow=none;rounded=0;" parent="qB2Rg0o0fhjjosjWZkIm-90" source="qB2Rg0o0fhjjosjWZkIm-93" target="qB2Rg0o0fhjjosjWZkIm-95" edge="1">
          <mxGeometry relative="1" as="geometry" />
        </mxCell>
        <UserObject label="&lt;div style=&quot;font-size: 20px;&quot;&gt;Tir en : XY&lt;br style=&quot;font-size: 20px;&quot;&gt;&lt;/div&gt;&lt;div style=&quot;font-size: 20px;&quot;&gt;Case du tableau :&lt;/div&gt;&lt;div style=&quot;font-size: 20px;&quot;&gt;[x = X - 65][y = Y - 49]&lt;br style=&quot;font-size: 20px;&quot;&gt;&lt;/div&gt;" treeRoot="1" id="qB2Rg0o0fhjjosjWZkIm-93">
          <mxCell style="whiteSpace=wrap;html=1;align=center;treeFolding=1;treeMoving=1;newEdgeStyle={&quot;edgeStyle&quot;:&quot;elbowEdgeStyle&quot;,&quot;startArrow&quot;:&quot;none&quot;,&quot;endArrow&quot;:&quot;none&quot;};fontSize=20;" parent="qB2Rg0o0fhjjosjWZkIm-90" vertex="1">
            <mxGeometry x="100" y="40" width="200" height="110" as="geometry" />
          </mxCell>
        </UserObject>
        <mxCell id="qB2Rg0o0fhjjosjWZkIm-94" value="&lt;div style=&quot;font-size: 20px&quot;&gt;[x][y] == &#39;.&#39;&lt;br style=&quot;font-size: 20px&quot;&gt;&lt;/div&gt;&lt;div style=&quot;font-size: 20px&quot;&gt;A l&#39;eau&lt;br&gt;&lt;/div&gt;&lt;div&gt;[x][y] = &#39;o&#39;&lt;br&gt;&lt;/div&gt;" style="whiteSpace=wrap;html=1;align=center;verticalAlign=middle;treeFolding=1;treeMoving=1;newEdgeStyle={&quot;edgeStyle&quot;:&quot;elbowEdgeStyle&quot;,&quot;startArrow&quot;:&quot;none&quot;,&quot;endArrow&quot;:&quot;none&quot;};fillColor=#a20025;strokeColor=#6F0000;fontColor=#ffffff;fontSize=20;" parent="qB2Rg0o0fhjjosjWZkIm-90" vertex="1">
          <mxGeometry x="40" y="180" width="130" height="80" as="geometry" />
        </mxCell>
        <mxCell id="qB2Rg0o0fhjjosjWZkIm-95" value="&lt;div style=&quot;font-size: 20px&quot;&gt;[x][y] == &#39;nbr&#39;&lt;br style=&quot;font-size: 20px&quot;&gt;&lt;/div&gt;&lt;div style=&quot;font-size: 20px&quot;&gt;Touché&lt;/div&gt;&lt;div&gt;[x][y] = &#39;x&#39;&lt;br&gt;&lt;/div&gt;" style="whiteSpace=wrap;html=1;align=center;verticalAlign=middle;treeFolding=1;treeMoving=1;newEdgeStyle={&quot;edgeStyle&quot;:&quot;elbowEdgeStyle&quot;,&quot;startArrow&quot;:&quot;none&quot;,&quot;endArrow&quot;:&quot;none&quot;};fillColor=#008a00;strokeColor=#005700;fontColor=#ffffff;fontSize=20;" parent="qB2Rg0o0fhjjosjWZkIm-90" vertex="1">
          <mxGeometry x="240" y="180" width="130" height="80" as="geometry" />
        </mxCell>
      </root>
    </mxGraphModel>
  </diagram>
</mxfile>
